<?xml version="1.0" encoding="iso-8859-1"?>
<!-- Generator: Adobe Illustrator 18.0.0, SVG Export Plug-In . SVG Version: 6.00 Build 0)  -->
<!DOCTYPE svg PUBLIC "-//W3C//DTD SVG 1.1//EN" "http://www.w3.org/Graphics/SVG/1.1/DTD/svg11.dtd">
<svg xmlns="http://www.w3.org/2000/svg" xmlns:xlink="http://www.w3.org/1999/xlink" version="1.1" id="Capa_1" x="0px" y="0px" viewBox="0 0 220 220" style="enable-background:new 0 0 220 220;" xml:space="preserve" width="512px" height="512px">
<g>
	<path d="M110,0C49.346,0,0,49.346,0,110s49.346,110,110,110s110-49.346,110-110S170.654,0,110,0z M110,210   c-55.14,0-100-44.86-100-100S54.86,10,110,10s100,44.86,100,100S165.14,210,110,210z" fill="#FFFFFF"/>
	<path d="M110,19.5c-49.902,0-90.5,40.598-90.5,90.5s40.598,90.5,90.5,90.5s90.5-40.598,90.5-90.5S159.902,19.5,110,19.5z    M110,197.5c-48.248,0-87.5-39.252-87.5-87.5S61.752,22.5,110,22.5s87.5,39.252,87.5,87.5S158.248,197.5,110,197.5z" fill="#FFFFFF"/>
	<path d="M118,55.052V67.79c6.485,3.027,11,9.593,11,17.21h12C141,70.673,131.228,58.589,118,55.052z" fill="#FFFFFF"/>
	<path d="M118,105.052v12.738c6.485,3.027,11,9.593,11,17.21s-4.515,14.182-11,17.21v12.738c13.228-3.537,23-15.621,23-29.948   S131.228,108.589,118,105.052z" fill="#FFFFFF"/>
	<path d="M102,152.21c-6.485-3.027-11-9.593-11-17.21H79c0,14.327,9.772,26.411,23,29.948V152.21z" fill="#FFFFFF"/>
	<path d="M102,114.948V102.21C95.515,99.182,91,92.616,91,85s4.515-14.182,11-17.21V55.052C88.772,58.589,79,70.673,79,85   S88.772,111.411,102,114.948z" fill="#FFFFFF"/>
	<rect x="105" y="50.606" width="10" height="118.788" fill="#FFFFFF"/>
</g>
<g>
</g>
<g>
</g>
<g>
</g>
<g>
</g>
<g>
</g>
<g>
</g>
<g>
</g>
<g>
</g>
<g>
</g>
<g>
</g>
<g>
</g>
<g>
</g>
<g>
</g>
<g>
</g>
<g>
</g>
</svg>
