<?xml version="1.0" encoding="iso-8859-1"?>
<!-- Generator: Adobe Illustrator 18.1.1, SVG Export Plug-In . SVG Version: 6.00 Build 0)  -->
<svg xmlns="http://www.w3.org/2000/svg" xmlns:xlink="http://www.w3.org/1999/xlink" version="1.1" id="Capa_1" x="0px" y="0px" viewBox="0 0 274.47 274.47" style="enable-background:new 0 0 274.47 274.47;" xml:space="preserve" width="512px" height="512px">
<g>
	<g>
		<path d="M274.422,111.782l-8.594-93.721c-0.462-5.004-4.422-8.964-9.42-9.426l-93.721-8.594    c-3.079-0.277-6.135,0.827-8.316,3.013L3.056,154.37c-4.063,4.068-4.068,10.661,0,14.729l102.32,102.32    c4.068,4.068,10.666,4.068,14.734,0l151.309-151.309C273.595,117.912,274.699,114.861,274.422,111.782z M112.724,249.314    l-87.574-87.585L165.646,21.238l80.226,7.359l7.354,80.226L112.724,249.314z" fill="#FFFFFF"/>
		<circle cx="225.165" cy="49.298" r="13.891" fill="#FFFFFF"/>
	</g>
</g>
<g>
</g>
<g>
</g>
<g>
</g>
<g>
</g>
<g>
</g>
<g>
</g>
<g>
</g>
<g>
</g>
<g>
</g>
<g>
</g>
<g>
</g>
<g>
</g>
<g>
</g>
<g>
</g>
<g>
</g>
</svg>
