<?xml version="1.0" encoding="iso-8859-1"?>
<!-- Generator: Adobe Illustrator 16.0.0, SVG Export Plug-In . SVG Version: 6.00 Build 0)  -->
<!DOCTYPE svg PUBLIC "-//W3C//DTD SVG 1.1//EN" "http://www.w3.org/Graphics/SVG/1.1/DTD/svg11.dtd">
<svg xmlns="http://www.w3.org/2000/svg" xmlns:xlink="http://www.w3.org/1999/xlink" version="1.1" id="Capa_1" x="0px" y="0px" width="512px" height="512px" viewBox="0 0 32.75 32.75" style="enable-background:new 0 0 32.75 32.75;" xml:space="preserve">
<g>
	<g>
		<path d="M9.915,25.666h3.36v-14.16h-2.36c-0.04,0.227-0.117,0.47-0.23,0.73c-0.113,0.26-0.29,0.5-0.53,0.72    c-0.24,0.22-0.563,0.403-0.97,0.55c-0.407,0.147-0.93,0.22-1.57,0.22h-0.42v2.12h2.72V25.666z" fill="#FFFFFF"/>
		<path d="M22.395,16.977c-0.16,0.272-0.406,0.594-0.74,0.959c-0.332,0.367-0.799,0.817-1.399,1.352    c-0.307,0.268-0.644,0.594-1.01,0.979c-0.367,0.389-0.713,0.842-1.04,1.36c-0.327,0.521-0.6,1.113-0.82,1.78    c-0.22,0.667-0.33,1.42-0.33,2.26h9.041v-2.6h-5.021c0.173-0.4,0.503-0.83,0.989-1.291c0.487-0.459,1.078-1.029,1.771-1.709    c0.44-0.414,0.804-0.787,1.09-1.121c0.287-0.332,0.517-0.67,0.69-1.01c0.173-0.341,0.293-0.703,0.359-1.091    c0.066-0.387,0.101-0.847,0.101-1.38c0-0.56-0.067-1.08-0.2-1.56c-0.133-0.48-0.367-0.896-0.7-1.25    c-0.333-0.354-0.782-0.634-1.35-0.84c-0.567-0.207-1.277-0.311-2.13-0.311c-3.041,0-4.561,1.42-4.561,4.26v0.46h3.12    c0-0.268,0.007-0.554,0.021-0.859c0.013-0.306,0.06-0.59,0.14-0.851c0.08-0.26,0.207-0.473,0.38-0.64s0.42-0.25,0.74-0.25    c0.48,0,0.796,0.17,0.949,0.51c0.154,0.34,0.23,0.79,0.23,1.351c0,0.267-0.013,0.513-0.04,0.74    C22.648,16.453,22.555,16.703,22.395,16.977z" fill="#FFFFFF"/>
		<path d="M12.875,6.178c0.081,0,0.145-0.026,0.192-0.079c0.048-0.054,0.083-0.123,0.104-0.209c0.022-0.087,0.036-0.186,0.042-0.298    c0.005-0.111,0.008-0.228,0.008-0.349c0-0.136-0.003-0.259-0.008-0.369c-0.005-0.109-0.02-0.204-0.042-0.283    c-0.022-0.078-0.056-0.139-0.102-0.181c-0.046-0.043-0.109-0.063-0.19-0.063c-0.077,0-0.136,0.023-0.179,0.071    c-0.042,0.048-0.074,0.113-0.096,0.198C12.582,4.7,12.568,4.8,12.563,4.913c-0.006,0.113-0.008,0.236-0.008,0.368    c0,0.29,0.02,0.512,0.061,0.666C12.656,6.101,12.743,6.178,12.875,6.178z" fill="#FFFFFF"/>
		<path d="M10.414,4.412c-0.039-0.109-0.121-0.165-0.245-0.165c-0.146,0-0.24,0.058-0.28,0.171C9.848,4.531,9.828,4.689,9.828,4.891    h0.644C10.471,4.682,10.452,4.522,10.414,4.412z" fill="#FFFFFF"/>
		<path d="M20.32,5.502c-0.047,0.036-0.082,0.079-0.104,0.129c-0.021,0.05-0.033,0.116-0.033,0.2c0,0.118,0.022,0.21,0.066,0.278    c0.044,0.067,0.107,0.102,0.193,0.102c0.095,0,0.179-0.029,0.25-0.088C20.766,6.064,20.8,5.958,20.8,5.804    c0-0.124,0.001-0.227,0.003-0.308s0.002-0.152,0.002-0.215c-0.139,0.073-0.244,0.12-0.316,0.141    C20.417,5.442,20.361,5.469,20.32,5.502z" fill="#FFFFFF"/>
		<path d="M29.375,1.25h-1.123c0.029-0.093,0.059-0.186,0.059-0.289c0-0.53-0.432-0.961-0.963-0.961s-0.961,0.431-0.961,0.961    c0,0.104,0.028,0.196,0.059,0.289h-3.68c0.029-0.093,0.059-0.186,0.059-0.289c0-0.53-0.432-0.961-0.963-0.961    C21.332,0,20.9,0.431,20.9,0.961c0,0.104,0.029,0.196,0.06,0.289h-3.681c0.029-0.093,0.058-0.186,0.058-0.289    c0-0.53-0.43-0.961-0.961-0.961c-0.531,0-0.961,0.431-0.961,0.961c0,0.104,0.028,0.196,0.058,0.289h-3.681    c0.029-0.093,0.059-0.186,0.059-0.289C11.851,0.431,11.42,0,10.89,0c-0.531,0-0.962,0.431-0.962,0.961    c0,0.104,0.028,0.196,0.058,0.289h-3.68c0.03-0.093,0.059-0.186,0.059-0.289C6.365,0.431,5.935,0,5.404,0    C4.873,0,4.442,0.431,4.442,0.961c0,0.104,0.028,0.196,0.058,0.289H3.375c-1.518,0-2.75,1.233-2.75,2.75v26    c0,1.518,1.232,2.75,2.75,2.75H26.27l5.855-5.855V4C32.125,2.483,30.893,1.25,29.375,1.25z M24.941,3.774l0.363,2.085h0.01    l0.348-2.085h0.891L25.75,6.772c-0.051,0.19-0.105,0.347-0.162,0.47c-0.056,0.123-0.125,0.219-0.208,0.289    c-0.082,0.069-0.181,0.118-0.298,0.146c-0.117,0.028-0.262,0.041-0.434,0.041h-0.203c-0.029,0-0.061-0.001-0.092-0.003    c-0.03-0.002-0.061-0.004-0.09-0.008V7.08c0.036,0.007,0.073,0.013,0.11,0.017c0.037,0.004,0.073,0.005,0.11,0.005    c0.084,0,0.16-0.022,0.23-0.068c0.07-0.046,0.117-0.133,0.143-0.261l-0.84-2.998L24.941,3.774L24.941,3.774z M22.175,3.774h0.858    v0.418h0.011c0.06-0.132,0.146-0.247,0.261-0.347c0.115-0.099,0.268-0.147,0.454-0.147h0.066c0.015,0,0.041,0.004,0.077,0.012    v0.836c-0.045-0.008-0.086-0.014-0.125-0.017c-0.039-0.004-0.079-0.006-0.123-0.006c-0.18,0-0.323,0.04-0.43,0.121    c-0.105,0.081-0.158,0.22-0.158,0.418v1.688h-0.892V3.774z M20.738,4.36c-0.043-0.053-0.115-0.08-0.213-0.08    c-0.125,0-0.209,0.036-0.254,0.107c-0.043,0.071-0.067,0.172-0.071,0.3h-0.792c0.003-0.209,0.033-0.376,0.091-0.501    c0.058-0.124,0.138-0.223,0.245-0.297c0.105-0.073,0.225-0.123,0.355-0.151c0.129-0.027,0.289-0.041,0.476-0.041    c0.366,0,0.634,0.067,0.803,0.201c0.168,0.134,0.253,0.36,0.253,0.679v1.529c0,0.113,0.004,0.233,0.014,0.357    c0.01,0.125,0.041,0.22,0.092,0.286h-0.858c-0.019-0.052-0.03-0.106-0.036-0.165c-0.005-0.059-0.01-0.117-0.014-0.176h-0.012    c-0.062,0.132-0.155,0.234-0.28,0.308c-0.125,0.074-0.265,0.11-0.418,0.11c-0.253,0-0.448-0.07-0.585-0.212    c-0.139-0.141-0.207-0.373-0.207-0.695c0-0.177,0.033-0.331,0.099-0.465c0.066-0.134,0.154-0.232,0.265-0.295    c0.109-0.062,0.238-0.109,0.388-0.143c0.149-0.034,0.284-0.066,0.409-0.099c0.066-0.019,0.121-0.036,0.162-0.053    c0.043-0.017,0.076-0.036,0.1-0.062c0.023-0.022,0.039-0.054,0.047-0.091c0.008-0.036,0.012-0.082,0.012-0.138    C20.805,4.486,20.783,4.413,20.738,4.36z M16.57,3.774h0.891v2.029c0,0.106,0.021,0.19,0.066,0.251    c0.043,0.061,0.107,0.09,0.191,0.09s0.159-0.033,0.223-0.102c0.064-0.067,0.097-0.175,0.097-0.321V3.774h0.892V6.75H18.07V6.398    h-0.01c-0.062,0.132-0.156,0.236-0.281,0.313c-0.125,0.076-0.27,0.115-0.434,0.115c-0.254,0-0.445-0.066-0.578-0.198    s-0.199-0.341-0.199-0.627L16.57,3.774L16.57,3.774z M14.536,3.774h0.858v0.418h0.011c0.059-0.132,0.146-0.247,0.261-0.347    c0.115-0.099,0.267-0.147,0.454-0.147h0.066c0.015,0,0.041,0.004,0.077,0.012v0.836c-0.044-0.008-0.085-0.014-0.124-0.017    c-0.039-0.004-0.08-0.006-0.124-0.006c-0.18,0-0.323,0.04-0.429,0.121s-0.159,0.22-0.159,0.418v1.688h-0.891V3.774z M11.681,2.823    h0.891v1.275h0.011c0.037-0.076,0.081-0.142,0.132-0.195c0.051-0.053,0.106-0.094,0.165-0.123    c0.059-0.029,0.119-0.051,0.182-0.063c0.063-0.012,0.125-0.02,0.187-0.02c0.18,0,0.326,0.04,0.44,0.118    c0.114,0.079,0.202,0.189,0.264,0.33c0.063,0.142,0.104,0.31,0.126,0.504s0.033,0.406,0.033,0.638    c0,0.278-0.021,0.515-0.061,0.709C14.01,6.19,13.952,6.35,13.875,6.473c-0.077,0.122-0.173,0.212-0.289,0.27    C13.47,6.8,13.339,6.828,13.192,6.828c-0.099,0-0.185-0.014-0.258-0.041c-0.073-0.028-0.137-0.063-0.19-0.104    c-0.053-0.043-0.095-0.089-0.126-0.141c-0.031-0.052-0.054-0.103-0.068-0.154h-0.011v0.363h-0.858V2.823z M8.989,4.575    c0.035-0.179,0.098-0.332,0.19-0.463C9.27,3.982,9.394,3.881,9.55,3.807c0.156-0.074,0.355-0.11,0.597-0.11    c0.275,0,0.491,0.041,0.649,0.124c0.158,0.082,0.276,0.2,0.355,0.352c0.079,0.152,0.128,0.333,0.148,0.542s0.03,0.44,0.03,0.693    H9.828V5.59c0,0.23,0.022,0.403,0.066,0.517c0.044,0.114,0.13,0.171,0.258,0.171c0.118,0,0.198-0.044,0.242-0.133    c0.044-0.088,0.072-0.225,0.083-0.412h0.825c-0.007,0.374-0.108,0.65-0.303,0.828s-0.479,0.267-0.853,0.267    c-0.282,0-0.503-0.046-0.663-0.138C9.323,6.598,9.202,6.475,9.12,6.322C9.038,6.168,8.986,5.99,8.966,5.788    c-0.02-0.201-0.03-0.412-0.03-0.632C8.937,4.946,8.954,4.753,8.989,4.575z M6.429,2.823H8.7v0.748H7.352v0.786h1.265v0.748H7.352    V6.75H6.428L6.429,2.823L6.429,2.823z M30.625,26.273l-0.311,0.311h-2.355c-1.102,0-2,0.898-2,2v2.355l-0.311,0.311H3.375    c-0.689,0-1.25-0.561-1.25-1.25V9h28.5V26.273z" fill="#FFFFFF"/>
	</g>
</g>
<g>
</g>
<g>
</g>
<g>
</g>
<g>
</g>
<g>
</g>
<g>
</g>
<g>
</g>
<g>
</g>
<g>
</g>
<g>
</g>
<g>
</g>
<g>
</g>
<g>
</g>
<g>
</g>
<g>
</g>
</svg>
