<?xml version="1.0" encoding="iso-8859-1"?>
<!-- Generator: Adobe Illustrator 19.0.0, SVG Export Plug-In . SVG Version: 6.00 Build 0)  -->
<svg xmlns="http://www.w3.org/2000/svg" xmlns:xlink="http://www.w3.org/1999/xlink" version="1.1" id="Capa_1" x="0px" y="0px" viewBox="0 0 51.071 51.071" style="enable-background:new 0 0 51.071 51.071;" xml:space="preserve" width="512px" height="512px">
<g>
	<g>
		<path d="M25.535,20.04c-5.534,0-10.02,4.486-10.02,10.02s4.486,10.02,10.02,10.02c5.534,0,10.02-4.487,10.02-10.02    C35.556,24.527,31.07,20.04,25.535,20.04z M31.03,31.677h-7.111v-8.404h3.232v5.172h3.879V31.677z" fill="#FFFFFF"/>
	</g>
</g>
<g>
	<g>
		<rect x="33.616" y="3.232" width="6.465" height="6.465" fill="#FFFFFF"/>
	</g>
</g>
<g>
	<g>
		<path d="M43.313,7.758v5.172H30.384V7.758h-9.697v5.172H7.758V7.758H0v33.616c0,3.556,2.909,6.465,6.465,6.465h38.141    c3.556,0,6.465-2.909,6.465-6.465V7.758H43.313z M46.546,41.374h-0.001c0,1.051-0.888,1.939-1.939,1.939H6.465    c-1.051,0-1.939-0.888-1.939-1.939V16.808h42.02V41.374z" fill="#FFFFFF"/>
	</g>
</g>
<g>
	<g>
		<rect x="10.99" y="3.232" width="6.465" height="6.465" fill="#FFFFFF"/>
	</g>
</g>
<g>
</g>
<g>
</g>
<g>
</g>
<g>
</g>
<g>
</g>
<g>
</g>
<g>
</g>
<g>
</g>
<g>
</g>
<g>
</g>
<g>
</g>
<g>
</g>
<g>
</g>
<g>
</g>
<g>
</g>
</svg>
