<?xml version="1.0" standalone="no"?>
<!DOCTYPE svg PUBLIC "-//W3C//DTD SVG 20010904//EN"
 "http://www.w3.org/TR/2001/REC-SVG-20010904/DTD/svg10.dtd">
<svg version="1.0" xmlns="http://www.w3.org/2000/svg"
 width="900.000000pt" height="900.000000pt" viewBox="0 0 900.000000 900.000000"
 preserveAspectRatio="xMidYMid meet">
<metadata>
Created by potrace 1.10, written by Peter Selinger 2001-2011
</metadata>
<g transform="translate(0.000000,900.000000) scale(0.100000,-0.100000)"
fill="#ffffff" stroke="none">
<path d="M3155 8220 c-155 -33 -282 -86 -420 -175 -77 -50 -250 -223 -300
-300 -92 -142 -142 -264 -176 -428 -17 -85 -19 -144 -19 -767 0 -629 2 -681
20 -765 27 -129 44 -177 100 -291 143 -289 393 -496 715 -590 83 -24 290 -43
470 -43 181 0 430 20 464 38 11 6 29 11 40 11 37 0 218 85 315 147 91 60 249
218 309 309 62 97 147 278 147 315 0 11 5 29 11 40 27 51 38 296 38 834 0 645
-8 761 -70 935 -13 35 -71 158 -92 195 -163 278 -441 470 -780 539 -114 24
-657 21 -772 -4z m697 -749 c152 -52 235 -155 257 -320 15 -115 15 -1088 0
-1202 -19 -139 -84 -230 -214 -300 -66 -36 -379 -52 -564 -29 -164 21 -270
105 -322 258 -18 52 -19 92 -19 676 0 670 -1 651 52 752 21 39 93 111 132 132
89 47 110 50 372 51 222 1 257 -1 306 -18z"/>
<path d="M6530 8220 c-121 -26 -170 -44 -286 -101 -290 -143 -495 -391 -590
-714 -31 -105 -35 -229 -32 -925 3 -627 5 -699 21 -740 9 -25 17 -53 17 -62 0
-35 88 -220 147 -312 60 -91 218 -249 309 -309 97 -62 278 -147 315 -147 11 0
29 -5 40 -11 34 -18 283 -38 464 -38 395 0 590 51 835 218 137 94 268 250 349
415 57 115 74 163 101 291 18 84 20 136 20 765 0 623 -2 682 -19 767 -20 96
-34 147 -57 201 -62 149 -135 260 -238 365 -118 119 -136 135 -226 188 -147
87 -221 116 -383 150 -131 27 -658 26 -787 -1z m695 -748 c73 -26 105 -46 153
-93 47 -47 67 -78 94 -154 17 -45 18 -98 18 -671 0 -588 -1 -624 -19 -677 -52
-150 -160 -236 -322 -257 -185 -23 -498 -7 -564 29 -85 46 -137 97 -190 191
-19 34 -20 53 -20 710 0 674 0 675 22 720 46 95 124 164 227 200 44 16 86 19
301 19 217 1 257 -1 300 -17z"/>
<path d="M1020 5601 c-202 -44 -333 -287 -259 -480 39 -103 97 -169 193 -219
46 -24 61 -26 161 -26 100 0 115 2 161 26 96 50 154 116 193 219 50 131 2 309
-110 403 -65 55 -125 77 -218 81 -47 2 -102 1 -121 -4z"/>
<path d="M6564 4100 c-39 -4 -80 -13 -92 -19 -11 -6 -30 -11 -41 -11 -38 0
-216 -83 -314 -147 -92 -60 -250 -218 -310 -309 -59 -92 -147 -277 -147 -312
0 -9 -8 -37 -17 -62 -16 -41 -18 -113 -21 -740 -3 -696 1 -820 32 -925 57
-194 156 -366 285 -495 95 -95 189 -162 305 -219 118 -59 166 -75 296 -102 81
-16 138 -19 390 -19 300 0 384 8 517 50 159 50 315 144 436 264 119 118 135
136 188 226 86 144 117 224 150 383 17 85 19 144 19 763 0 719 -1 731 -52 899
-30 95 -114 258 -173 336 -185 241 -462 406 -735 439 -89 11 -614 11 -716 0z
m712 -772 c99 -52 159 -121 195 -225 18 -53 19 -89 19 -677 0 -670 1 -651 -52
-752 -21 -39 -93 -111 -132 -132 -91 -48 -118 -52 -377 -52 -217 0 -252 2
-302 19 -103 36 -173 96 -225 195 l-27 51 0 675 c0 657 1 676 20 710 52 92
103 144 185 189 47 26 95 30 370 28 l275 -2 51 -27z"/>
<path d="M2238 3548 l-3 -553 -745 -5 -745 -5 0 -370 0 -370 745 -5 745 -5 3
-552 c1 -397 5 -553 13 -553 6 0 26 12 43 28 18 15 48 39 67 54 19 14 154 122
300 240 147 117 284 227 305 243 21 17 54 44 74 60 21 17 52 42 71 57 19 14
154 122 300 240 147 117 284 227 305 243 21 17 56 45 78 63 23 18 48 39 56 45
8 7 68 54 133 106 64 52 117 99 117 106 0 9 -145 132 -245 207 -5 4 -30 25
-55 45 -25 21 -63 52 -84 68 -21 17 -158 126 -305 243 -146 117 -279 223 -295
235 -15 12 -47 38 -70 57 -23 19 -59 49 -80 65 -21 17 -158 126 -305 243 -146
117 -279 223 -295 235 -16 12 -45 37 -66 55 -21 17 -42 32 -49 32 -8 0 -12
-153 -13 -552z"/>
<path d="M4367 1469 c-100 -39 -166 -99 -215 -193 -24 -46 -26 -61 -26 -161 0
-100 2 -115 26 -161 50 -96 116 -154 219 -193 102 -39 233 -20 333 48 54 37
89 78 124 145 24 46 26 61 26 161 0 100 -2 115 -26 161 -50 96 -116 154 -219
193 -70 27 -175 27 -242 0z"/>
</g>
</svg>
