<?xml version="1.0" encoding="iso-8859-1"?>
<!-- Generator: Adobe Illustrator 16.0.0, SVG Export Plug-In . SVG Version: 6.00 Build 0)  -->
<!DOCTYPE svg PUBLIC "-//W3C//DTD SVG 1.1//EN" "http://www.w3.org/Graphics/SVG/1.1/DTD/svg11.dtd">
<svg xmlns="http://www.w3.org/2000/svg" xmlns:xlink="http://www.w3.org/1999/xlink" version="1.1" id="Capa_1" x="0px" y="0px" width="512px" height="512px" viewBox="0 0 52.333 52.333" style="enable-background:new 0 0 52.333 52.333;" xml:space="preserve">
<g>
	<g>
		<path d="M51.333,5.337H1c-0.553,0-1,0.448-1,1v39.658c0,0.552,0.447,1,1,1h50.333c0.554,0,1-0.448,1-1V6.337    C52.333,5.786,51.887,5.337,51.333,5.337z M47.411,14.365v27.603H4.921V14.365H47.411z" fill="#FFFFFF"/>
		<path d="M11.79,28.308c0.04,0.28,0.187,0.543,0.445,0.705l7.5,4.717c0.165,0.104,0.35,0.153,0.531,0.153    c0.332,0,0.657-0.166,0.848-0.468c0.294-0.467,0.153-1.084-0.314-1.379l-6.189-3.893l6.189-3.893    c0.468-0.294,0.608-0.912,0.314-1.379c-0.294-0.467-0.911-0.607-1.379-0.314l-7.5,4.716c-0.259,0.162-0.405,0.424-0.445,0.705    c-0.011,0.055-0.004,0.107-0.006,0.164C11.786,28.199,11.779,28.253,11.79,28.308z" fill="#FFFFFF"/>
		<path d="M31.219,33.46c0.19,0.302,0.516,0.468,0.848,0.468c0.183,0,0.367-0.049,0.531-0.153l7.5-4.717    c0.26-0.162,0.405-0.425,0.445-0.705c0.012-0.055,0.004-0.108,0.005-0.164c-0.001-0.056,0.007-0.108-0.005-0.164    c-0.04-0.279-0.188-0.541-0.445-0.705l-7.5-4.715c-0.467-0.294-1.084-0.153-1.379,0.314c-0.294,0.467-0.152,1.085,0.314,1.379    l6.189,3.892l-6.189,3.894C31.064,32.376,30.925,32.994,31.219,33.46z" fill="#FFFFFF"/>
		<path d="M24.478,33.84c0.097,0.029,0.194,0.043,0.29,0.043c0.43,0,0.826-0.278,0.957-0.71l2.875-9.478    c0.16-0.529-0.139-1.087-0.666-1.248c-0.529-0.161-1.087,0.139-1.248,0.667l-2.875,9.478C23.65,33.122,23.949,33.679,24.478,33.84    z" fill="#FFFFFF"/>
	</g>
</g>
<g>
</g>
<g>
</g>
<g>
</g>
<g>
</g>
<g>
</g>
<g>
</g>
<g>
</g>
<g>
</g>
<g>
</g>
<g>
</g>
<g>
</g>
<g>
</g>
<g>
</g>
<g>
</g>
<g>
</g>
</svg>
